REM DIRINDEX 1\5,1\2\6,1\2\7,1\3\8,1\3\9,1\4\10,1\4\11,1\4\12
REM DIRNAME folder01,folder02,folder03,folder04,folder05,folder06,folder07,folder08,folder09,folder10,folder11,folder12
TITLE ""
FILE "EJE_DB3000_5th_4B_43.mp3" MP3
  TRACK 01 AUDIO
    TITLE "0:"
    INDEX 01 00:00:00
  TRACK 02 AUDIO
    TITLE "10:cjc026_09846"
    INDEX 01 00:00:05
  TRACK 03 AUDIO
    TITLE "0:"
    INDEX 01 00:01:01
  TRACK 04 AUDIO
    TITLE "11:cjc026_09847"
    INDEX 01 00:01:28
  TRACK 05 AUDIO
    TITLE "0:"
    INDEX 01 00:02:32
  TRACK 06 AUDIO
    TITLE "12:cjc026_09848"
    INDEX 01 00:02:59
  TRACK 07 AUDIO
    TITLE "0:"
    INDEX 01 00:03:55
  TRACK 08 AUDIO
    TITLE "10:cjc026_09849"
    INDEX 01 00:04:05
  TRACK 09 AUDIO
    TITLE "0:"
    INDEX 01 00:05:24
  TRACK 10 AUDIO
    TITLE "11:cjc026_09850"
    INDEX 01 00:05:48
  TRACK 11 AUDIO
    TITLE "0:"
    INDEX 01 00:07:02
  TRACK 12 AUDIO
    TITLE "12:cjc026_09851"
    INDEX 01 00:07:25
  TRACK 13 AUDIO
    TITLE "0:"
    INDEX 01 00:08:42
  TRACK 14 AUDIO
    TITLE "10:cjc026_09852"
    INDEX 01 00:08:66
  TRACK 15 AUDIO
    TITLE "0:"
    INDEX 01 00:09:65
  TRACK 16 AUDIO
    TITLE "11:cjc026_09853"
    INDEX 01 00:10:16
  TRACK 17 AUDIO
    TITLE "0:"
    INDEX 01 00:11:23
  TRACK 18 AUDIO
    TITLE "12:cjc026_09854"
    INDEX 01 00:11:48
  TRACK 19 AUDIO
    TITLE "0:"
    INDEX 01 00:12:48
  TRACK 20 AUDIO
    TITLE "10:cjc026_09855"
    INDEX 01 00:13:00
  TRACK 21 AUDIO
    TITLE "0:"
    INDEX 01 00:13:73
  TRACK 22 AUDIO
    TITLE "11:cjc026_09856"
    INDEX 01 00:14:21
  TRACK 23 AUDIO
    TITLE "0:"
    INDEX 01 00:15:36
  TRACK 24 AUDIO
    TITLE "12:cjc026_09857"
    INDEX 01 00:15:64
  TRACK 25 AUDIO
    TITLE "0:"
    INDEX 01 00:16:61
  TRACK 26 AUDIO
    TITLE "10:cjc026_09858"
    INDEX 01 00:17:12
  TRACK 27 AUDIO
    TITLE "0:"
    INDEX 01 00:18:09
  TRACK 28 AUDIO
    TITLE "11:cjc026_09859"
    INDEX 01 00:18:39
  TRACK 29 AUDIO
    TITLE "0:"
    INDEX 01 00:19:62
  TRACK 30 AUDIO
    TITLE "12:cjc026_09860"
    INDEX 01 00:20:14
  TRACK 31 AUDIO
    TITLE "0:"
    INDEX 01 00:21:11
  TRACK 32 AUDIO
    TITLE "10:cjc026_09861"
    INDEX 01 00:21:39
  TRACK 33 AUDIO
    TITLE "0:"
    INDEX 01 00:22:38
  TRACK 34 AUDIO
    TITLE "11:cjc026_09862"
    INDEX 01 00:22:64
  TRACK 35 AUDIO
    TITLE "0:"
    INDEX 01 00:24:14
  TRACK 36 AUDIO
    TITLE "12:cjc026_09863"
    INDEX 01 00:24:39
  TRACK 37 AUDIO
    TITLE "0:"
    INDEX 01 00:25:39
  TRACK 38 AUDIO
    TITLE "10:cjc026_09864"
    INDEX 01 00:25:62
  TRACK 39 AUDIO
    TITLE "0:"
    INDEX 01 00:26:62
  TRACK 40 AUDIO
    TITLE "11:cjc026_09865"
    INDEX 01 00:27:12
  TRACK 41 AUDIO
    TITLE "0:"
    INDEX 01 00:28:19
  TRACK 42 AUDIO
    TITLE "12:cjc026_09866"
    INDEX 01 00:28:47
  TRACK 43 AUDIO
    TITLE "0:"
    INDEX 01 00:29:44
  TRACK 44 AUDIO
    TITLE "10:cjc026_09867"
    INDEX 01 00:29:70
  TRACK 45 AUDIO
    TITLE "0:"
    INDEX 01 00:30:71
  TRACK 46 AUDIO
    TITLE "11:cjc026_09868"
    INDEX 01 00:31:24
  TRACK 47 AUDIO
    TITLE "0:"
    INDEX 01 00:32:41
  TRACK 48 AUDIO
    TITLE "12:cjc026_09869"
    INDEX 01 00:32:68
  TRACK 49 AUDIO
    TITLE "0:"
    INDEX 01 00:33:69
  TRACK 50 AUDIO
    TITLE "10:cjc026_09870"
    INDEX 01 00:34:22
  TRACK 51 AUDIO
    TITLE "0:"
    INDEX 01 00:35:06
  TRACK 52 AUDIO
    TITLE "11:cjc026_09871"
    INDEX 01 00:35:33
  TRACK 53 AUDIO
    TITLE "0:"
    INDEX 01 00:36:36
  TRACK 54 AUDIO
    TITLE "12:cjc026_09872"
    INDEX 01 00:36:62
  TRACK 55 AUDIO
    TITLE "0:"
    INDEX 01 00:37:48
  TRACK 56 AUDIO
    TITLE "10:cjc026_09873"
    INDEX 01 00:38:00
  TRACK 57 AUDIO
    TITLE "0:"
    INDEX 01 00:38:67
  TRACK 58 AUDIO
    TITLE "11:cjc026_09874"
    INDEX 01 00:39:19
  TRACK 59 AUDIO
    TITLE "0:"
    INDEX 01 00:40:30
  TRACK 60 AUDIO
    TITLE "12:cjc026_09875"
    INDEX 01 00:40:58
  TRACK 61 AUDIO
    TITLE "0:"
    INDEX 01 00:41:49
  TRACK 62 AUDIO
    TITLE "10:cjc026_09876"
    INDEX 01 00:42:04
  TRACK 63 AUDIO
    TITLE "0:"
    INDEX 01 00:43:03
  TRACK 64 AUDIO
    TITLE "11:cjc026_09877"
    INDEX 01 00:43:31
  TRACK 65 AUDIO
    TITLE "0:"
    INDEX 01 00:44:46
  TRACK 66 AUDIO
    TITLE "12:cjc026_09878"
    INDEX 01 00:44:73
  TRACK 67 AUDIO
    TITLE "0:"
    INDEX 01 00:45:73
  TRACK 68 AUDIO
    TITLE "10:cjc026_09879"
    INDEX 01 00:46:25
  TRACK 69 AUDIO
    TITLE "0:"
    INDEX 01 00:47:01
  TRACK 70 AUDIO
    TITLE "11:cjc026_09880"
    INDEX 01 00:47:38
  TRACK 71 AUDIO
    TITLE "0:"
    INDEX 01 00:49:12
  TRACK 72 AUDIO
    TITLE "12:cjc026_09881"
    INDEX 01 00:49:39
  TRACK 73 AUDIO
    TITLE "0:"
    INDEX 01 00:50:17
